<svg xmlns="http://www.w3.org/2000/svg" width="500" height="500" version="1.0" viewBox="0 0 375 375"><defs><clipPath id="a"><path d="M160 67.492h55V121h-55Zm0 0"/></clipPath><clipPath id="b"><path d="M20.535 127h333.75v129H20.535Zm0 0"/></clipPath><clipPath id="c"><path d="M127 188h121v119.492H127Zm0 0"/></clipPath></defs><path fill="#547326" d="M322.313 119.445a26.385 26.385 0 0 1-2.04 10.176 25.982 25.982 0 0 1-2.473 4.598 26.313 26.313 0 0 1-3.323 4.031 27.333 27.333 0 0 1-4.055 3.309c-.73.48-1.48.93-2.254 1.34-.773.41-1.563.78-2.375 1.117a27.39 27.39 0 0 1-2.473.879 26.02 26.02 0 0 1-2.547.632c-.859.172-1.722.297-2.597.383a26.7 26.7 0 0 1-5.242 0 26.341 26.341 0 0 1-2.598-.383 26.02 26.02 0 0 1-2.547-.632 27.317 27.317 0 0 1-2.473-.88 27.422 27.422 0 0 1-2.375-1.117 27.83 27.83 0 0 1-2.253-1.34 28.18 28.18 0 0 1-2.11-1.554 28.551 28.551 0 0 1-1.945-1.754 27.485 27.485 0 0 1-1.762-1.934 27.346 27.346 0 0 1-1.566-2.097 26.97 26.97 0 0 1-2.473-4.598 27.467 27.467 0 0 1-.883-2.457 25.79 25.79 0 0 1-.637-2.531 26.216 26.216 0 0 1-.515-5.188 26.464 26.464 0 0 1 4.508-14.777 28.132 28.132 0 0 1 1.566-2.098 27.485 27.485 0 0 1 1.762-1.933 27.5 27.5 0 0 1 1.945-1.75 26.782 26.782 0 0 1 14.355-5.91 26.701 26.701 0 0 1 5.243 0 26.94 26.94 0 0 1 7.617 1.895 26.782 26.782 0 0 1 6.734 4.016c.68.55 1.328 1.135 1.95 1.749a27.485 27.485 0 0 1 1.761 1.933 27.04 27.04 0 0 1 2.914 4.336c.414.77.79 1.555 1.121 2.36a26.328 26.328 0 0 1 2.04 10.18Zm0 0"/><g clip-path="url(#a)"><path fill="#547326" d="M214.168 94.094a26.463 26.463 0 0 1-1.152 7.722 26.27 26.27 0 0 1-.887 2.457 26.57 26.57 0 0 1-1.121 2.36c-.414.77-.863 1.515-1.352 2.238a25.624 25.624 0 0 1-1.562 2.098 27.54 27.54 0 0 1-1.766 1.933 26.661 26.661 0 0 1-6.305 4.648c-.773.415-1.566.786-2.375 1.118a27.317 27.317 0 0 1-5.02 1.516 27.75 27.75 0 0 1-2.597.382 27.95 27.95 0 0 1-2.62.125c-.88 0-1.75-.043-2.626-.125a27.75 27.75 0 0 1-2.597-.382 27.262 27.262 0 0 1-5.02-1.516 25.692 25.692 0 0 1-2.371-1.117 26.741 26.741 0 0 1-2.254-1.34 28.18 28.18 0 0 1-2.11-1.555 26.563 26.563 0 0 1-3.707-3.688 25.67 25.67 0 0 1-1.566-2.097 25.943 25.943 0 0 1-1.347-2.238 26.3 26.3 0 0 1-2.008-4.816 26.969 26.969 0 0 1-.64-2.532 26.463 26.463 0 0 1 5.563-22.063 26.626 26.626 0 0 1 8.07-6.586c.772-.41 1.561-.78 2.37-1.113a27.006 27.006 0 0 1 2.473-.882c.84-.25 1.687-.461 2.547-.633a26.78 26.78 0 0 1 10.441 0 26.198 26.198 0 0 1 5.02 1.516 26.105 26.105 0 0 1 4.625 2.457c.73.484 1.433 1 2.109 1.554a25.1 25.1 0 0 1 1.945 1.754 26.25 26.25 0 0 1 3.328 4.027 26.66 26.66 0 0 1 3.36 7.059 26.647 26.647 0 0 1 1.152 7.719Zm0 0"/></g><path fill="#547326" d="M106.02 119.445c0 .871-.043 1.739-.13 2.606a25.81 25.81 0 0 1-1.023 5.113 26.3 26.3 0 0 1-2.004 4.816c-.414.77-.863 1.516-1.351 2.239a27.298 27.298 0 0 1-1.563 2.097 27.54 27.54 0 0 1-1.765 1.934 26.66 26.66 0 0 1-6.305 4.648 28.22 28.22 0 0 1-2.375 1.118 27.39 27.39 0 0 1-2.473.879 26.07 26.07 0 0 1-2.547.632 26.47 26.47 0 0 1-2.597.383 26.72 26.72 0 0 1-5.246 0 26.514 26.514 0 0 1-2.598-.383 26.07 26.07 0 0 1-2.547-.632 27.317 27.317 0 0 1-2.473-.88 27.976 27.976 0 0 1-2.375-1.117 26.66 26.66 0 0 1-12.105-13.277 26.3 26.3 0 0 1-.883-2.457 25.81 25.81 0 0 1-1.023-5.113 26.384 26.384 0 0 1 0-5.215 26.094 26.094 0 0 1 1.023-5.113 26.3 26.3 0 0 1 2.004-4.817c.414-.77.863-1.515 1.352-2.238a28.08 28.08 0 0 1 1.562-2.098 27.54 27.54 0 0 1 1.766-1.933 27.5 27.5 0 0 1 1.945-1.75 24.845 24.845 0 0 1 2.11-1.555 26.714 26.714 0 0 1 7.097-3.34 27.242 27.242 0 0 1 5.145-1.015 26.701 26.701 0 0 1 5.246 0c.87.085 1.738.21 2.597.382.86.168 1.707.383 2.547.633a27.093 27.093 0 0 1 4.848 1.996c.77.41 1.523.86 2.25 1.344.73.48 1.433 1 2.11 1.555a27.5 27.5 0 0 1 1.945 1.75 27.54 27.54 0 0 1 1.765 1.933 28.08 28.08 0 0 1 1.563 2.098c.488.723.937 1.469 1.351 2.238a26.3 26.3 0 0 1 2.004 4.816 26.094 26.094 0 0 1 1.024 5.114c.086.867.129 1.738.129 2.61Zm0 0"/><g clip-path="url(#b)"><path fill="#547326" d="M354.09 203.363c-1.996-27.925-26.188-50.074-55.719-50.074h-5.637c-19.582 0-36.812 9.754-46.804 24.453-2.13-27.797-26.266-49.8-55.703-49.8h-5.637c-29.434 0-53.574 22.003-55.703 49.8-9.989-14.699-27.223-24.453-46.805-24.453h-5.637c-29.527 0-53.722 22.149-55.715 50.074h-.195v28.512h.133c1.312 13.074 12.445 23.324 25.941 23.324h71.012a69.537 69.537 0 0 1-.613-9.07c0-.434.027-.813.035-1.246H46.609c-8.629 0-15.644-7.024-15.644-15.602v-22.21c0-23.942 20.402-43.419 45.48-43.419h5.637c25.078 0 45.48 19.477 45.48 43.418v2.262c3.231-5.168 5.88-9.879 10.305-14.039v-13.574c0-23.938 21.645-43.414 46.723-43.414h5.637c25.078 0 46.722 19.476 46.722 43.414v13.574c4.43 4.16 7.078 8.871 10.305 14.039v-2.262c0-23.941 20.402-43.418 45.48-43.418h5.637c25.078 0 45.484 19.477 45.484 43.418v22.211c0 8.578-7.02 15.602-15.644 15.602h-70.434c.008.433.032.812.032 1.246 0 3.074-.223 6.098-.61 9.07h71.012c14.375 0 26.074-11.629 26.074-25.918v-25.918Zm0 0"/></g><path fill="#547326" fill-rule="evenodd" d="M190.004 229.727c.41-1.04-.121-1.653-.574-1.563-2.098.422-3.371 3.184-4.41 3.184-.41 0-.758-.407-.758-.754 0-1.04.996-1.617 1.75-2.375 2.316-2.2 5.324-3.88 8.683-3.88 2.493 0 5.157 1.509 3.07 7.13l-16.425 44.453c-.352.867-.988 2.316-.988 3.242 0 .406.226.809.695.809 1.734 0 2.95-2.778 3.762-2.778.289 0 .691.352.691.868 0 1.675-4.797 6.718-10.648 6.718-2.086 0-3.532-.98-3.532-3.183 0-2.782 1.97-7.528 2.371-8.516Zm4.754-14.106c0-2.555 2.195-4.633 4.742-4.633 2.32 0 4 1.559 4 3.934 0 2.668-2.203 4.633-4.805 4.633-2.375 0-3.937-1.559-3.937-3.934Zm0 0"/><g clip-path="url(#c)"><path fill="#547326" d="M187.41 307.492c-33.07 0-59.972-26.738-59.972-59.61 0-32.866 26.902-59.609 59.972-59.609 33.067 0 59.969 26.743 59.969 59.61 0 32.87-26.902 59.61-59.969 59.61Zm0-108.851c-27.316 0-49.543 22.09-49.543 49.242 0 27.152 22.227 49.242 49.543 49.242 27.317 0 49.54-22.09 49.54-49.242 0-27.153-22.223-49.242-49.54-49.242Zm0 0"/></g></svg>