<svg xmlns="http://www.w3.org/2000/svg" width="500" height="500" version="1.0" viewBox="0 0 375 375"><defs><clipPath id="a"><path d="M27.469 222h320.25v95.844H27.469Zm0 0"/></clipPath></defs><path fill="#fff" d="M97.523 217.227c.98 0 1.965-.047 2.942-.145.98-.094 1.95-.238 2.914-.43a31.225 31.225 0 0 0 2.86-.718 29.292 29.292 0 0 0 2.773-.993c.91-.375 1.797-.793 2.664-1.257.867-.461 1.707-.97 2.527-1.512a31.4 31.4 0 0 0 2.367-1.754 30.811 30.811 0 0 0 2.184-1.98 31.67 31.67 0 0 0 1.976-2.18 30.368 30.368 0 0 0 3.27-4.89 30.17 30.17 0 0 0 2.254-5.434 30.384 30.384 0 0 0 1.148-5.77c.094-.98.145-1.96.145-2.941 0-.985-.05-1.965-.145-2.942a29.906 29.906 0 0 0-4.918-13.73 29.582 29.582 0 0 0-1.754-2.363 29.839 29.839 0 0 0-6.527-5.914c-.82-.547-1.66-1.051-2.527-1.516a30.137 30.137 0 0 0-11.211-3.399 30.828 30.828 0 0 0-2.942-.144c-.984 0-1.964.05-2.945.144-.976.098-1.95.243-2.914.434-.965.191-1.918.43-2.855.715a30.5 30.5 0 0 0-2.778.992 30.026 30.026 0 0 0-5.188 2.773c-.82.547-1.609 1.13-2.366 1.754a29.976 29.976 0 0 0-9.684 14.484 29.264 29.264 0 0 0-1.148 5.77 29.541 29.541 0 0 0-.145 2.942c0 .98.047 1.96.145 2.941.093.977.238 1.95.43 2.91a30.002 30.002 0 0 0 1.71 5.63c.375.91.797 1.796 1.258 2.663.465.867.969 1.707 1.516 2.524a31.4 31.4 0 0 0 1.754 2.367 30.751 30.751 0 0 0 4.164 4.16 29.895 29.895 0 0 0 4.894 3.266c.867.464 1.754.882 2.66 1.257.91.38 1.836.707 2.778.993a29.434 29.434 0 0 0 5.77 1.148c.98.098 1.96.145 2.944.145Zm0-50.008c.653 0 1.309.031 1.961.094a20.221 20.221 0 0 1 5.7 1.425 19.802 19.802 0 0 1 3.457 1.852c.547.363 1.074.754 1.578 1.168.508.414.992.855 1.457 1.32a19.418 19.418 0 0 1 2.488 3.031 19.802 19.802 0 0 1 2.512 5.305c.191.629.347 1.262.476 1.906.13.64.227 1.29.29 1.942.062.652.097 1.304.097 1.96 0 .653-.035 1.31-.098 1.962a19.911 19.911 0 0 1-1.426 5.691c-.253.605-.53 1.2-.84 1.777a20.434 20.434 0 0 1-2.179 3.258c-.418.508-.855.992-1.32 1.457a20.225 20.225 0 0 1-6.492 4.336c-.606.25-1.223.469-1.852.66-.625.192-1.262.352-1.906.477-.64.129-1.29.226-1.942.289-.652.062-1.308.098-1.96.098-.657 0-1.313-.036-1.965-.098a19.228 19.228 0 0 1-1.942-.29 18.88 18.88 0 0 1-1.906-.476 19.933 19.933 0 0 1-6.887-3.68 20.225 20.225 0 0 1-1.457-1.316c-.46-.465-.902-.949-1.316-1.457a19.12 19.12 0 0 1-1.172-1.574 19.933 19.933 0 0 1-1.848-3.46 19.264 19.264 0 0 1-.664-1.849 21.155 21.155 0 0 1-.476-1.902 20.406 20.406 0 0 1-.29-1.941 20.59 20.59 0 0 1 0-3.922 20.222 20.222 0 0 1 .766-3.848c.192-.625.41-1.242.664-1.848.25-.605.531-1.195.84-1.773a19.763 19.763 0 0 1 2.18-3.262c.414-.508.855-.992 1.316-1.453a20.07 20.07 0 0 1 3.035-2.488 19.802 19.802 0 0 1 5.309-2.512 20.406 20.406 0 0 1 3.848-.766 20.61 20.61 0 0 1 1.964-.093ZM277.664 217.227c.98 0 1.965-.047 2.941-.145.98-.094 1.95-.238 2.915-.43a31.225 31.225 0 0 0 2.859-.718 29.292 29.292 0 0 0 2.773-.993c.91-.375 1.797-.793 2.664-1.257.868-.461 1.707-.97 2.528-1.512a31.401 31.401 0 0 0 2.367-1.754 30.752 30.752 0 0 0 4.16-4.16 30.368 30.368 0 0 0 3.27-4.89 30.17 30.17 0 0 0 2.254-5.434 30.384 30.384 0 0 0 1.148-5.77c.094-.98.144-1.96.144-2.941 0-.985-.05-1.965-.144-2.942-.098-.98-.242-1.949-.434-2.914a29.906 29.906 0 0 0-4.484-10.816 29.976 29.976 0 0 0-8.281-8.277c-.82-.547-1.66-1.051-2.528-1.516a30.137 30.137 0 0 0-11.21-3.399 30.828 30.828 0 0 0-2.942-.144c-.984 0-1.965.05-2.945.144-.977.098-1.95.243-2.914.434-.965.191-1.918.43-2.856.715-.941.285-1.867.617-2.777.992a30.026 30.026 0 0 0-5.188 2.773c-.82.547-1.609 1.13-2.367 1.754a29.976 29.976 0 0 0-9.684 14.484 29.264 29.264 0 0 0-1.148 5.77 29.541 29.541 0 0 0-.144 2.942c0 .98.047 1.96.144 2.941.094.977.238 1.95.43 2.91a30.002 30.002 0 0 0 1.71 5.63c.376.91.798 1.796 1.259 2.663.464.867.968 1.707 1.515 2.524a31.4 31.4 0 0 0 1.754 2.367 30.751 30.751 0 0 0 4.164 4.16 29.894 29.894 0 0 0 4.895 3.266c.867.464 1.754.882 2.66 1.257.91.38 1.836.707 2.777.993a29.434 29.434 0 0 0 5.77 1.148c.98.098 1.96.145 2.945.145Zm0-50.008c.652 0 1.309.031 1.961.094a20.221 20.221 0 0 1 5.7 1.425 19.802 19.802 0 0 1 3.457 1.852c.546.363 1.073.754 1.577 1.168.508.414.993.855 1.457 1.32a19.418 19.418 0 0 1 2.489 3.031 19.802 19.802 0 0 1 2.511 5.305c.192.629.348 1.262.477 1.906.129.64.227 1.29.289 1.942.063.652.098 1.304.098 1.96 0 .653-.035 1.31-.098 1.962a19.912 19.912 0 0 1-1.426 5.691c-.254.605-.531 1.2-.84 1.777a20.434 20.434 0 0 1-2.18 3.258c-.417.508-.855.992-1.32 1.457a20.225 20.225 0 0 1-6.492 4.336c-.61.25-1.222.469-1.851.66a18.88 18.88 0 0 1-1.907.477c-.64.129-1.289.226-1.941.289-.652.062-1.309.098-1.96.098-.657 0-1.313-.036-1.966-.098a19.228 19.228 0 0 1-1.941-.29 18.88 18.88 0 0 1-1.906-.476 19.934 19.934 0 0 1-6.887-3.68 20.225 20.225 0 0 1-1.457-1.316c-.461-.465-.903-.949-1.317-1.457a19.12 19.12 0 0 1-1.171-1.574 19.933 19.933 0 0 1-1.848-3.46 19.265 19.265 0 0 1-.664-1.849 21.155 21.155 0 0 1-.477-1.902 20.406 20.406 0 0 1-.289-1.941 20.59 20.59 0 0 1 0-3.922 20.222 20.222 0 0 1 .766-3.848c.191-.625.41-1.242.664-1.848.25-.605.531-1.195.84-1.773a19.763 19.763 0 0 1 2.18-3.262c.413-.508.855-.992 1.316-1.453a20.07 20.07 0 0 1 3.035-2.488 19.802 19.802 0 0 1 5.309-2.512 20.406 20.406 0 0 1 3.848-.766 20.61 20.61 0 0 1 1.964-.093Zm0 0"/><g clip-path="url(#a)"><path fill="#fff" d="M342.715 307.246h-13.512a16.624 16.624 0 0 0 3.504-10.004v-45.008c0-16.554-15.715-30.007-35.027-30.007h-40.032c-17.316 0-31.726 10.855-34.476 25.007h-20.567a4.985 4.985 0 0 0-3.953 1.899 4.895 4.895 0 0 0-.949 2.047 4.884 4.884 0 0 0 .047 2.254l13.46 53.812h-47.237l13.613-53.812a4.991 4.991 0 0 0-.902-4.301 4.894 4.894 0 0 0-1.825-1.438 4.923 4.923 0 0 0-2.277-.46h-20.566c-2.754-14.153-17.164-25.008-34.477-25.008H77.508c-19.317 0-35.028 13.453-35.028 30.007v45.008a16.51 16.51 0 0 0 .934 5.29 16.516 16.516 0 0 0 2.566 4.714H32.473c-.328 0-.657.031-.977.094-.324.066-.637.16-.941.285a4.848 4.848 0 0 0-1.621 1.086c-.235.23-.442.484-.621.758-.184.273-.34.558-.465.863a5.293 5.293 0 0 0-.285.938 5.138 5.138 0 0 0 0 1.953c.066.32.16.632.285.937.125.305.28.59.465.863.18.274.386.528.62.758.231.235.485.442.758.621.274.184.563.34.864.465.304.125.617.219.941.285.32.063.649.094.977.094h310.242c.328 0 .652-.031.976-.094.32-.066.633-.16.938-.285.305-.125.59-.281.863-.465.274-.18.528-.386.758-.62.234-.231.441-.485.625-.759a4.987 4.987 0 0 0 .46-4.691 4.82 4.82 0 0 0-.46-.863 4.848 4.848 0 0 0-.625-.758 4.848 4.848 0 0 0-.758-.625 5.082 5.082 0 0 0-1.8-.746 5.138 5.138 0 0 0-.977-.094Zm-230.18 0H67.5c-8.156 0-15.012-4.601-15.012-10.004v-45.008c0-11.05 11.207-20.004 25.02-20.004h40.031a24.495 24.495 0 0 1 7.504.719c1.227.313 2.422.715 3.582 1.211a24.432 24.432 0 0 1 6.402 3.98 24.34 24.34 0 0 1 2.668 2.68c.825.961 1.567 1.977 2.23 3.055a24.58 24.58 0 0 1 1.731 3.36h-39.129a4.972 4.972 0 0 0-3.175 1.015c-.454.348-.84.758-1.153 1.234-.316.48-.539.996-.676 1.551l-8.91 36.207H77.508v-15.004a4.987 4.987 0 0 0-1.469-3.535 4.848 4.848 0 0 0-.758-.625 5.082 5.082 0 0 0-1.8-.746 5.138 5.138 0 0 0-1.954 0c-.324.066-.636.16-.941.285-.3.125-.59.281-.863.461-.274.184-.528.39-.758.625-.235.23-.442.485-.621.758-.184.273-.34.559-.465.863a5.293 5.293 0 0 0-.285.938 5.138 5.138 0 0 0-.094.976v20.004c0 .328.031.653.094.977.066.32.16.633.285.937.125.305.281.59.465.864.18.273.386.527.62.757.231.235.485.442.759.621.273.184.562.34.863.465.305.125.617.219.941.285.32.063.649.094.977.094h54.191a15.39 15.39 0 0 1-.933 2.11c-.367.68-.782 1.328-1.25 1.941a14.878 14.878 0 0 1-3.305 3.2 15.2 15.2 0 0 1-4.125 2.05 15.76 15.76 0 0 1-2.246.527c-.762.118-1.531.176-2.3.176Zm41.13 0H132.55a24.434 24.434 0 0 0 3.738-7.09 24.448 24.448 0 0 0 1.266-7.914 4.987 4.987 0 0 0-1.469-3.535 4.848 4.848 0 0 0-.758-.625 5.082 5.082 0 0 0-1.8-.746 5.138 5.138 0 0 0-.977-.094H98.92l7.509-30.008h59.746Zm67.855 0-12.512-50.012h59.746l7.508 30.008h-33.625c-.328 0-.657.031-.977.094-.324.066-.637.16-.941.285-.301.125-.59.281-.864.461-.273.184-.527.39-.757.625-.235.23-.442.484-.621.758-.184.273-.34.558-.465.863a5.293 5.293 0 0 0-.285.938 5.138 5.138 0 0 0-.094.976 24.444 24.444 0 0 0 1.262 7.914 24.445 24.445 0 0 0 3.742 7.09Zm101.18-10.004c0 5.403-6.856 10.004-15.012 10.004h-45.036c-.773 0-1.539-.058-2.304-.176a15.76 15.76 0 0 1-2.246-.527 15.154 15.154 0 0 1-2.141-.867 14.903 14.903 0 0 1-1.98-1.184 14.544 14.544 0 0 1-1.778-1.469 14.971 14.971 0 0 1-2.777-3.671 14.95 14.95 0 0 1-.938-2.11h54.196c.328 0 .652-.031.976-.094.32-.066.633-.16.938-.285.304-.125.59-.281.863-.465.273-.18.527-.386.758-.62.234-.231.441-.485.625-.758a4.987 4.987 0 0 0 .844-2.777v-20.005a4.987 4.987 0 0 0-1.469-3.535 4.848 4.848 0 0 0-.758-.625 5.082 5.082 0 0 0-1.8-.746 5.138 5.138 0 0 0-1.954 0c-.324.066-.637.16-.941.285-.301.125-.59.281-.864.461-.273.184-.527.39-.757.625-.235.23-.442.485-.622.758-.183.273-.34.559-.464.863a5.293 5.293 0 0 0-.286.938 5.138 5.138 0 0 0-.093.976v15.004h-11.11l-8.906-36.207a4.953 4.953 0 0 0-.68-1.55 4.995 4.995 0 0 0-4.324-2.25h-39.133a24.603 24.603 0 0 1 3.961-6.415c.82-.96 1.711-1.855 2.668-2.68a24.432 24.432 0 0 1 6.403-3.98 24.61 24.61 0 0 1 11.09-1.93h40.03c13.81 0 25.02 8.954 25.02 20.004Zm0 0"/></g><path fill="#fff" d="M255.195 102.203a44.989 44.989 0 0 0-.867-8.777 44.597 44.597 0 0 0-2.562-8.446 44.799 44.799 0 0 0-6.793-11.328 45.318 45.318 0 0 0-2.97-3.273 44.372 44.372 0 0 0-3.273-2.965 44.848 44.848 0 0 0-7.34-4.902 45.502 45.502 0 0 0-3.995-1.89 46.23 46.23 0 0 0-4.16-1.49 44.965 44.965 0 0 0-4.29-1.07 45.008 45.008 0 0 0-8.785-.867c-4.851 0-9.57.785-14.16 2.352a46.462 46.462 0 0 0-1.758-1.633 49.07 49.07 0 0 0-1.84-1.535 45.425 45.425 0 0 0-5.98-3.988 43.815 43.815 0 0 0-6.535-2.989 45.63 45.63 0 0 0-2.274-.761 47.042 47.042 0 0 0-2.312-.637 43.136 43.136 0 0 0-2.344-.512 43.807 43.807 0 0 0-4.75-.652 44.47 44.47 0 0 0-2.394-.133 40.784 40.784 0 0 0-2.395-.008c-.8.016-1.598.059-2.398.117-.797.063-1.59.145-2.383.25-.793.102-1.582.227-2.371.375a47.038 47.038 0 0 0-4.66 1.121 45.663 45.663 0 0 0-4.516 1.613 45.69 45.69 0 0 0-4.316 2.082 45.441 45.441 0 0 0-6 3.953 43.575 43.575 0 0 0-3.618 3.145 43.414 43.414 0 0 0-1.68 1.715 43.03 43.03 0 0 0-3.07 3.68c-.48.64-.941 1.293-1.383 1.957-.445.664-.87 1.34-1.277 2.027-.41.688-.8 1.387-1.168 2.094a43.978 43.978 0 0 0-1.996 4.36 45.471 45.471 0 0 0-1.52 4.542 44.504 44.504 0 0 0-1.023 4.68 48.85 48.85 0 0 0-.328 2.375 44.788 44.788 0 0 0-.195 2.39c-.047.798-.07 1.598-.07 2.395-.005.801.015 1.598.054 2.399.043.797.105 1.594.188 2.386a44 44 0 0 0 .312 2.38c.125.788.27 1.574.438 2.355a45.699 45.699 0 0 0 1.246 4.625 45.608 45.608 0 0 0 1.734 4.469 43.8 43.8 0 0 0 1.043 2.156c.367.71.754 1.41 1.156 2.101.406.688.828 1.368 1.27 2.036.437.668.898 1.32 1.37 1.964a46.154 46.154 0 0 0 3.052 3.696c.543.59 1.097 1.164 1.668 1.722.574.559 1.16 1.102 1.757 1.63a45.424 45.424 0 0 0 7.824 5.523l-2.203 15.5a4.902 4.902 0 0 0-.035 1.433 4.97 4.97 0 0 0 1.121 2.61c.309.37.664.691 1.067.96a4.904 4.904 0 0 0 2.8.848 4.93 4.93 0 0 0 2.505-.648l26.718-15.305c1.7-.363 3.367-.832 5.004-1.398a44.913 44.913 0 0 0 9.95 7.175 44.834 44.834 0 0 0 11.519 4.227l26.621 15.152c.773.442 1.61.657 2.5.649a4.907 4.907 0 0 0 2.805-.848 5.19 5.19 0 0 0 1.066-.96 4.97 4.97 0 0 0 1.121-2.606c.055-.48.043-.961-.039-1.434l-2.2-15.504a44.972 44.972 0 0 0 9.212-7.125 44.581 44.581 0 0 0 3.84-4.39 45.22 45.22 0 0 0 3.238-4.856 44.213 44.213 0 0 0 2.582-5.23 44.623 44.623 0 0 0 3.04-11.239c.26-1.93.398-3.87.405-5.82ZM171.63 126.61c-.54.118-1.059.301-1.55.551l-18.563 10.653 1.05-8.852a4.999 4.999 0 0 0-1.55-4.14 4.932 4.932 0 0 0-1.254-.86 36.839 36.839 0 0 1-3.602-2 36.209 36.209 0 0 1-3.34-2.41 34.34 34.34 0 0 1-3.035-2.781 34.076 34.076 0 0 1-2.687-3.122 35.414 35.414 0 0 1-1.203-1.671c-.383-.57-.75-1.153-1.102-1.743-.348-.59-.68-1.191-.996-1.8a36.85 36.85 0 0 1-.89-1.86 38.21 38.21 0 0 1-.778-1.906 34.773 34.773 0 0 1-1.21-3.938 34.73 34.73 0 0 1-.435-2.011 36.03 36.03 0 0 1-.5-4.086 36.234 36.234 0 0 1-.07-2.059 32.84 32.84 0 0 1 .05-2.058c.036-.688.095-1.371.173-2.055a35.41 35.41 0 0 1 .703-4.055 35.65 35.65 0 0 1 1.176-3.945c.234-.648.488-1.285.761-1.914a35.205 35.205 0 0 1 5.402-8.727c.446-.527.903-1.035 1.376-1.535.476-.496.965-.98 1.465-1.45a34.12 34.12 0 0 1 3.172-2.629c.55-.405 1.117-.796 1.695-1.17a33.45 33.45 0 0 1 3.582-2.032c.617-.305 1.238-.59 1.875-.856a36.873 36.873 0 0 1 1.922-.746c.644-.226 1.3-.437 1.96-.629a34.914 34.914 0 0 1 8.117-1.336 36.112 36.112 0 0 1 4.117.055 36.095 36.095 0 0 1 4.087.54c.672.128 1.344.277 2.012.445.664.171 1.324.359 1.98.566a33.683 33.683 0 0 1 3.848 1.477 33.71 33.71 0 0 1 3.644 1.914c.59.355 1.168.726 1.735 1.113.566.39 1.12.797 1.664 1.215.543.422 1.07.86 1.59 1.312.515.453 1.02.918 1.507 1.403a34.24 34.24 0 0 1 2.758 3.058 34.193 34.193 0 0 1 2.383 3.36 35.078 35.078 0 0 1 1.969 3.617c.293.62.566 1.25.82 1.886a34.695 34.695 0 0 1 1.781 5.91c.14.672.258 1.348.36 2.028.097.68.18 1.363.238 2.047.059.683.098 1.367.117 2.055.02.687.02 1.374-.004 2.058-.02.688-.062 1.375-.125 2.059-.058.683-.14 1.363-.242 2.043a35.6 35.6 0 0 1-.852 4.031 34.689 34.689 0 0 1-2.145 5.785 33.82 33.82 0 0 1-.937 1.836 38.31 38.31 0 0 1-1.043 1.773c-.367.582-.75 1.153-1.148 1.711a33.556 33.556 0 0 1-1.246 1.641c-.43.535-.875 1.059-1.34 1.566-.46.508-.937 1.004-1.43 1.485-.488.48-.992.945-1.511 1.394a35.48 35.48 0 0 1-3.262 2.516 35.318 35.318 0 0 1-7.293 3.8 34.78 34.78 0 0 1-1.95.673c-.655.207-1.316.394-1.984.558-.664.168-1.336.317-2.011.442Zm53.691 7.153c-.46.222-.879.508-1.25.86a4.973 4.973 0 0 0-1.468 2.62 4.963 4.963 0 0 0-.082 1.52l1.25 8.851-18.563-10.402a6.436 6.436 0 0 0-1.55-.55c-5.29-1.032-10.079-3.184-14.364-6.45a44.997 44.997 0 0 0 6.957-5.461 44.692 44.692 0 0 0 8.113-10.46 44.542 44.542 0 0 0 1.977-3.962 44.758 44.758 0 0 0 2.742-8.406c.316-1.442.563-2.895.738-4.363.172-1.465.274-2.938.305-4.414a46.478 46.478 0 0 0-.129-4.426 44.743 44.743 0 0 0-.566-4.387 43.99 43.99 0 0 0-.993-4.316 45.066 45.066 0 0 0-3.227-8.23 45.55 45.55 0 0 0-2.206-3.837 33.683 33.683 0 0 1 10.098-.613c.976.086 1.949.21 2.918.379.964.172 1.925.379 2.875.629.949.246 1.886.535 2.812.863.926.328 1.836.695 2.73 1.098.895.406 1.77.847 2.63 1.324a35.524 35.524 0 0 1 4.879 3.281 36.047 36.047 0 0 1 2.214 1.938c.711.68 1.39 1.382 2.043 2.117a35.505 35.505 0 0 1 3.523 4.707c.52.832 1 1.687 1.45 2.558.449.875.86 1.766 1.23 2.672a35.406 35.406 0 0 1 1.773 5.605c.216.958.391 1.923.524 2.895.137.973.23 1.946.281 2.926.055.98.067 1.961.036 2.942-.032.98-.102 1.96-.215 2.933a34.202 34.202 0 0 1-1.16 5.762 35.144 35.144 0 0 1-2.105 5.488 35.873 35.873 0 0 1-3 5.059 34.817 34.817 0 0 1-5.969 6.469 34.559 34.559 0 0 1-4.801 3.398c-.848.496-1.711.957-2.598 1.383Zm0 0"/><path fill="#fff" d="M157.617 92.203c0 .492-.047.98-.14 1.465-.098.48-.239.95-.43 1.406a7.452 7.452 0 0 1-1.625 2.434 7.408 7.408 0 0 1-2.438 1.625 7.303 7.303 0 0 1-1.406.426 7.392 7.392 0 0 1-1.465.144c-.492 0-.98-.047-1.465-.144a7.303 7.303 0 0 1-1.406-.426 7.408 7.408 0 0 1-2.437-1.625 7.452 7.452 0 0 1-1.625-2.434 7.486 7.486 0 0 1-.575-2.87 7.486 7.486 0 0 1 .574-2.871 7.452 7.452 0 0 1 1.625-2.434 7.408 7.408 0 0 1 2.438-1.625 7.314 7.314 0 0 1 2.871-.57 7.314 7.314 0 0 1 2.871.57 7.408 7.408 0 0 1 2.438 1.624 7.452 7.452 0 0 1 1.625 2.434c.191.457.332.926.43 1.406.093.485.14.973.14 1.465ZM172.629 92.203c0 .492-.047.98-.14 1.465-.098.48-.239.95-.43 1.406a7.452 7.452 0 0 1-1.625 2.434 7.408 7.408 0 0 1-2.438 1.625 7.303 7.303 0 0 1-1.406.426 7.392 7.392 0 0 1-1.465.144c-.492 0-.98-.047-1.465-.144a7.303 7.303 0 0 1-1.406-.426 7.408 7.408 0 0 1-2.438-1.625 7.452 7.452 0 0 1-1.625-2.434 7.486 7.486 0 0 1-.574-2.87 7.486 7.486 0 0 1 .574-2.871 7.452 7.452 0 0 1 1.625-2.434 7.408 7.408 0 0 1 2.438-1.625 7.314 7.314 0 0 1 2.871-.57 7.314 7.314 0 0 1 2.871.57 7.408 7.408 0 0 1 2.438 1.624 7.452 7.452 0 0 1 1.625 2.434c.191.457.332.926.43 1.406.093.485.14.973.14 1.465ZM187.64 92.203c0 .492-.046.98-.14 1.465-.098.48-.238.95-.43 1.406a7.452 7.452 0 0 1-1.625 2.434 7.408 7.408 0 0 1-2.438 1.625 7.303 7.303 0 0 1-1.405.426 7.392 7.392 0 0 1-1.465.144c-.492 0-.98-.047-1.465-.144a7.303 7.303 0 0 1-1.406-.426 7.408 7.408 0 0 1-2.438-1.625 7.452 7.452 0 0 1-1.625-2.434 7.486 7.486 0 0 1-.574-2.87c0-.493.05-.981.144-1.466.098-.48.239-.949.43-1.406a7.452 7.452 0 0 1 1.625-2.434 7.408 7.408 0 0 1 2.438-1.625 7.314 7.314 0 0 1 2.87-.57 7.314 7.314 0 0 1 2.871.57 7.408 7.408 0 0 1 2.438 1.625 7.452 7.452 0 0 1 1.625 2.434c.192.457.332.926.43 1.406.094.485.14.973.14 1.465Zm0 0"/></svg>