<svg xmlns="http://www.w3.org/2000/svg" width="500" height="500" version="1.0" viewBox="0 0 375 375"><defs><clipPath id="a"><path d="M27.469 234h320.25v96H27.469Zm0 0"/></clipPath></defs><path fill="#547326" d="M97.523 229.55a30.453 30.453 0 0 0 5.855-.574 31.225 31.225 0 0 0 2.86-.718 29.292 29.292 0 0 0 2.774-.992c.91-.375 1.797-.793 2.664-1.258a31.748 31.748 0 0 0 2.527-1.512 30.417 30.417 0 0 0 4.55-3.734 31.67 31.67 0 0 0 1.977-2.18 30.368 30.368 0 0 0 3.27-4.89 30.008 30.008 0 0 0 1.262-25.629 30.098 30.098 0 0 0-2.778-5.188 29.582 29.582 0 0 0-1.754-2.363 29.839 29.839 0 0 0-6.527-5.914c-.82-.547-1.66-1.051-2.527-1.516a30.137 30.137 0 0 0-11.211-3.398 29.599 29.599 0 0 0-2.942-.145 29.677 29.677 0 0 0-5.859.578c-.965.192-1.918.43-2.855.715a30.5 30.5 0 0 0-2.778.992 30.027 30.027 0 0 0-5.188 2.773c-.82.544-1.609 1.13-2.366 1.755a29.976 29.976 0 0 0-9.684 14.484 29.264 29.264 0 0 0-1.148 5.77 29.541 29.541 0 0 0-.145 2.94c0 .981.047 1.962.145 2.942a29.356 29.356 0 0 0 1.148 5.766 30.137 30.137 0 0 0 2.25 5.438c.465.867.969 1.706 1.516 2.523a31.4 31.4 0 0 0 1.754 2.367 30.751 30.751 0 0 0 1.98 2.18 29.054 29.054 0 0 0 2.184 1.976c.757.625 1.546 1.211 2.367 1.758.816.543 1.66 1.047 2.527 1.512.867.465 1.754.883 2.66 1.258a30.828 30.828 0 0 0 5.633 1.71c.965.192 1.938.333 2.914.43.98.098 1.961.145 2.945.145Zm0-50.007c.653 0 1.309.031 1.961.094a20.221 20.221 0 0 1 5.7 1.425c.605.254 1.195.532 1.773.84.578.309 1.14.645 1.684 1.012.546.363 1.074.754 1.578 1.168.508.414.992.856 1.457 1.32a19.418 19.418 0 0 1 2.488 3.032 19.802 19.802 0 0 1 2.512 5.304c.191.63.347 1.262.476 1.907.13.64.227 1.289.29 1.94.062.653.097 1.306.097 1.962 0 .652-.035 1.308-.098 1.96a19.911 19.911 0 0 1-1.426 5.691c-.253.607-.53 1.2-.84 1.779a20.434 20.434 0 0 1-2.179 3.257c-.418.508-.855.993-1.32 1.457a20.225 20.225 0 0 1-6.492 4.336c-.606.25-1.223.47-1.852.66a19.7 19.7 0 0 1-1.906.477c-.64.129-1.29.227-1.942.29-.652.062-1.308.097-1.96.097-.657 0-1.313-.035-1.965-.098a19.227 19.227 0 0 1-1.942-.289 19.989 19.989 0 0 1-8.793-4.156 20.224 20.224 0 0 1-1.457-1.317c-.46-.464-.902-.949-1.316-1.457a19.12 19.12 0 0 1-1.172-1.574 19.933 19.933 0 0 1-1.848-3.46 19.264 19.264 0 0 1-.664-1.848 21.155 21.155 0 0 1-.476-1.903 20.594 20.594 0 0 1-.29-1.941 20.59 20.59 0 0 1 0-3.922 20.222 20.222 0 0 1 .766-3.848c.192-.625.41-1.242.664-1.847.25-.606.531-1.196.84-1.774a19.763 19.763 0 0 1 2.18-3.262c.414-.507.855-.992 1.316-1.453a20.07 20.07 0 0 1 3.035-2.488 18.833 18.833 0 0 1 1.684-1.012 21.083 21.083 0 0 1 1.777-.84 19.989 19.989 0 0 1 7.66-1.52ZM277.664 229.55a30.452 30.452 0 0 0 5.855-.574 31.225 31.225 0 0 0 2.86-.718 29.292 29.292 0 0 0 2.773-.992c.91-.375 1.797-.793 2.664-1.258a31.747 31.747 0 0 0 2.528-1.512 30.417 30.417 0 0 0 2.367-1.758 29.781 29.781 0 0 0 2.18-1.976 30.751 30.751 0 0 0 1.98-2.18 30.368 30.368 0 0 0 3.27-4.89 30.008 30.008 0 0 0 1.262-25.629 30.097 30.097 0 0 0-2.778-5.188 29.976 29.976 0 0 0-5.914-6.523 29.401 29.401 0 0 0-2.367-1.754c-.82-.547-1.66-1.051-2.528-1.516a30.137 30.137 0 0 0-11.21-3.398 29.599 29.599 0 0 0-2.942-.145 29.677 29.677 0 0 0-5.86.578c-.964.192-1.917.43-2.855.715-.941.285-1.867.617-2.777.992a30.027 30.027 0 0 0-5.188 2.773c-.82.544-1.609 1.13-2.367 1.755a29.976 29.976 0 0 0-9.684 14.484 29.264 29.264 0 0 0-1.148 5.77 29.541 29.541 0 0 0-.144 2.94c0 .981.047 1.962.144 2.942a29.357 29.357 0 0 0 1.149 5.766 30.137 30.137 0 0 0 2.25 5.438c.464.867.968 1.706 1.515 2.523a31.4 31.4 0 0 0 1.754 2.367 30.751 30.751 0 0 0 1.98 2.18 29.054 29.054 0 0 0 2.184 1.976c.758.625 1.547 1.211 2.367 1.758.817.543 1.66 1.047 2.528 1.512.867.465 1.754.883 2.66 1.258.91.379 1.836.707 2.777.992.938.285 1.89.523 2.856.719.965.191 1.937.332 2.914.43.98.097 1.96.144 2.945.144Zm0-50.007c.652 0 1.309.031 1.961.094a20.221 20.221 0 0 1 5.7 1.425c.605.254 1.195.532 1.773.84.578.309 1.14.645 1.683 1.012.547.363 1.074.754 1.578 1.168.508.414.993.856 1.457 1.32a19.418 19.418 0 0 1 2.489 3.032 19.802 19.802 0 0 1 2.511 5.304c.192.63.348 1.262.477 1.907.129.64.227 1.289.289 1.94.063.653.098 1.306.098 1.962 0 .652-.035 1.308-.098 1.96a19.912 19.912 0 0 1-1.426 5.691c-.254.607-.531 1.2-.84 1.779a20.434 20.434 0 0 1-2.18 3.257c-.417.508-.855.993-1.32 1.457a20.225 20.225 0 0 1-6.492 4.336 19.989 19.989 0 0 1-3.758 1.137c-.64.129-1.289.227-1.941.29-.652.062-1.309.097-1.96.097-.657 0-1.313-.035-1.966-.098a19.228 19.228 0 0 1-1.941-.289 19.989 19.989 0 0 1-8.793-4.156 20.225 20.225 0 0 1-1.457-1.317c-.461-.464-.903-.949-1.317-1.457a19.12 19.12 0 0 1-1.171-1.574 19.933 19.933 0 0 1-1.848-3.46 19.265 19.265 0 0 1-.664-1.848 21.155 21.155 0 0 1-.477-1.903 20.594 20.594 0 0 1-.289-1.941 20.59 20.59 0 0 1 0-3.922 20.221 20.221 0 0 1 .766-3.848c.191-.625.41-1.242.664-1.847.25-.606.531-1.196.84-1.774a19.762 19.762 0 0 1 2.18-3.262c.413-.507.855-.992 1.316-1.453a20.07 20.07 0 0 1 3.035-2.488 18.833 18.833 0 0 1 1.684-1.012 21.084 21.084 0 0 1 1.777-.84 19.99 19.99 0 0 1 7.66-1.52Zm0 0"/><g clip-path="url(#a)"><path fill="#547326" d="M342.715 319.57h-13.512a16.624 16.624 0 0 0 3.504-10.004V264.56c0-16.555-15.715-30.008-35.027-30.008h-40.032c-17.316 0-31.726 10.851-34.476 25.008h-20.567a4.985 4.985 0 0 0-3.953 1.898 4.895 4.895 0 0 0-.949 2.047 4.884 4.884 0 0 0 .047 2.254l13.46 53.812h-47.237l13.613-53.812a4.991 4.991 0 0 0-.902-4.301 4.943 4.943 0 0 0-1.825-1.441 4.92 4.92 0 0 0-2.277-.457h-20.566c-2.754-14.157-17.164-25.008-34.477-25.008H77.508c-19.317 0-35.028 13.453-35.028 30.008v45.007a16.51 16.51 0 0 0 .934 5.29 16.516 16.516 0 0 0 2.566 4.714H32.473c-.328 0-.657.032-.977.094-.324.066-.637.16-.941.285-.301.125-.59.281-.864.461-.273.184-.527.39-.757.625-.235.23-.442.485-.622.758-.183.27-.34.559-.464.863a5.293 5.293 0 0 0-.285.938 5.138 5.138 0 0 0 0 1.953 4.976 4.976 0 0 0 .75 1.8c.18.274.386.528.62.758.231.235.485.442.758.622.274.183.563.336.864.464.304.125.617.22.941.282.32.066.649.097.977.097h310.242c.328 0 .652-.03.976-.093.32-.067.633-.16.938-.286a5.1 5.1 0 0 0 2.246-1.843c.184-.274.336-.563.46-.864a4.987 4.987 0 0 0 0-3.828 4.69 4.69 0 0 0-.46-.863 4.848 4.848 0 0 0-.625-.758 4.848 4.848 0 0 0-.758-.625 5.082 5.082 0 0 0-1.8-.746 5.138 5.138 0 0 0-.977-.094Zm-230.18 0H67.5c-8.156 0-15.012-4.601-15.012-10.004V264.56c0-11.051 11.207-20.004 25.02-20.004h40.031a24.495 24.495 0 0 1 7.504.719c1.227.312 2.422.714 3.582 1.21a24.432 24.432 0 0 1 6.402 3.98 24.34 24.34 0 0 1 2.668 2.68c.825.961 1.567 1.977 2.23 3.055a24.58 24.58 0 0 1 1.731 3.36h-39.129a4.972 4.972 0 0 0-3.175 1.015c-.454.348-.84.758-1.153 1.235-.316.476-.539.996-.676 1.55l-8.91 36.207H77.508v-15.003a4.987 4.987 0 0 0-.383-1.914 4.69 4.69 0 0 0-.46-.864 4.848 4.848 0 0 0-.626-.758 4.848 4.848 0 0 0-.758-.625 5.082 5.082 0 0 0-1.8-.746 5.138 5.138 0 0 0-1.954 0c-.324.067-.636.16-.941.285-.3.125-.59.282-.863.461-.274.184-.528.391-.758.625-.235.23-.442.485-.621.758-.184.27-.34.559-.465.863a5.293 5.293 0 0 0-.285.938 5.138 5.138 0 0 0-.094.976v20.004c0 .329.031.653.094.977a4.976 4.976 0 0 0 .75 1.8c.18.274.386.528.62.759.231.234.485.441.759.62.273.184.562.337.863.466.305.125.617.218.941.28.32.067.649.098.977.098h54.191a15.39 15.39 0 0 1-.933 2.11c-.367.68-.782 1.328-1.25 1.941a14.878 14.878 0 0 1-3.305 3.2 15.2 15.2 0 0 1-4.125 2.05 15.237 15.237 0 0 1-4.547.703Zm41.13 0H132.55a24.483 24.483 0 0 0 3.738-7.09 24.448 24.448 0 0 0 1.266-7.914 4.987 4.987 0 0 0-.383-1.914 4.69 4.69 0 0 0-.461-.863 4.848 4.848 0 0 0-.625-.758 4.848 4.848 0 0 0-.758-.625 5.082 5.082 0 0 0-1.8-.746 5.138 5.138 0 0 0-.977-.094H98.92l7.509-30.007h59.746Zm67.855 0-12.512-50.011h59.746l7.508 30.007h-33.625c-.328 0-.657.032-.977.094-.324.067-.637.16-.941.285-.301.125-.59.282-.864.461-.273.184-.527.39-.757.625-.235.23-.442.485-.621.758-.184.27-.34.559-.465.863a5.293 5.293 0 0 0-.285.938 5.138 5.138 0 0 0-.094.976 24.444 24.444 0 0 0 1.262 7.914 24.495 24.495 0 0 0 3.742 7.09Zm101.18-10.004c0 5.403-6.856 10.004-15.012 10.004h-45.036c-.773 0-1.539-.058-2.304-.18a15.237 15.237 0 0 1-2.246-.523 15.154 15.154 0 0 1-2.141-.867 14.903 14.903 0 0 1-1.98-1.184 14.575 14.575 0 0 1-1.778-1.472 14.616 14.616 0 0 1-1.531-1.727 14.642 14.642 0 0 1-1.246-1.941 14.95 14.95 0 0 1-.938-2.11h54.196c.328 0 .652-.03.976-.097.32-.063.633-.156.938-.281a5.1 5.1 0 0 0 2.246-1.844c.183-.274.336-.563.46-.864a4.987 4.987 0 0 0 .384-1.914v-20.003a4.987 4.987 0 0 0-.383-1.914 4.69 4.69 0 0 0-.461-.864 4.848 4.848 0 0 0-.625-.758 4.848 4.848 0 0 0-.758-.625 5.082 5.082 0 0 0-1.8-.746 5.138 5.138 0 0 0-1.954 0c-.324.067-.637.16-.941.285-.301.125-.59.282-.864.461-.273.184-.527.391-.757.625-.235.23-.442.485-.622.758-.183.27-.34.559-.464.863a5.293 5.293 0 0 0-.286.938 5.138 5.138 0 0 0-.093.976v15.004h-11.11l-8.906-36.207a4.914 4.914 0 0 0-.68-1.55 4.995 4.995 0 0 0-4.324-2.25h-39.133a24.603 24.603 0 0 1 3.961-6.414c.82-.961 1.711-1.856 2.668-2.68a24.432 24.432 0 0 1 6.403-3.98 24.61 24.61 0 0 1 11.09-1.93h40.03c13.81 0 25.02 8.953 25.02 20.004Zm0 0"/></g><path fill="#547326" d="M255.195 114.527a44.989 44.989 0 0 0-.867-8.78 44.81 44.81 0 0 0-1.07-4.282 45.082 45.082 0 0 0-1.492-4.16 44.799 44.799 0 0 0-4.16-7.781 45.318 45.318 0 0 0-5.602-6.82 44.371 44.371 0 0 0-3.274-2.966 44.848 44.848 0 0 0-7.34-4.902 45.502 45.502 0 0 0-3.995-1.89 46.23 46.23 0 0 0-4.16-1.489 44.965 44.965 0 0 0-4.29-1.07 45.008 45.008 0 0 0-8.785-.867c-4.851 0-9.57.785-14.16 2.351a43.452 43.452 0 0 0-1.758-1.633 49.07 49.07 0 0 0-1.84-1.535 45.425 45.425 0 0 0-5.98-3.988 43.816 43.816 0 0 0-6.535-2.988 45.63 45.63 0 0 0-2.274-.762 47.042 47.042 0 0 0-2.312-.637 47.211 47.211 0 0 0-2.344-.516 44.555 44.555 0 0 0-4.75-.648 48.897 48.897 0 0 0-2.394-.137 44.487 44.487 0 0 0-2.395-.004c-.8.016-1.598.059-2.398.118a44.36 44.36 0 0 0-2.383.25c-.793.101-1.582.226-2.371.375-.786.144-1.567.312-2.344.496-.777.187-1.55.398-2.317.625a45.663 45.663 0 0 0-4.516 1.613c-.737.309-1.464.637-2.183.984-.722.348-1.433.711-2.133 1.098a45.441 45.441 0 0 0-6 3.953 43.575 43.575 0 0 0-3.617 3.145 43.414 43.414 0 0 0-1.68 1.715 43.031 43.031 0 0 0-3.07 3.68c-.48.64-.941 1.292-1.383 1.956-.445.664-.87 1.34-1.277 2.028-.41.687-.8 1.386-1.168 2.093a43.978 43.978 0 0 0-1.996 4.36 45.47 45.47 0 0 0-1.52 4.543c-.21.77-.402 1.547-.574 2.328-.172.781-.32 1.562-.449 2.351a48.85 48.85 0 0 0-.328 2.375 44.788 44.788 0 0 0-.195 2.391c-.047.797-.07 1.594-.07 2.395-.005.8.015 1.597.054 2.394.043.8.105 1.598.188 2.39a44.52 44.52 0 0 0 .75 4.735c.164.781.351 1.559.562 2.328.207.774.438 1.54.684 2.297a45.607 45.607 0 0 0 1.734 4.469 43.8 43.8 0 0 0 1.043 2.156c.367.711.754 1.41 1.156 2.102.406.687.828 1.367 1.27 2.035.437.668.898 1.32 1.37 1.965a46.155 46.155 0 0 0 3.052 3.695c.543.59 1.097 1.164 1.668 1.723.574.558 1.16 1.101 1.757 1.629a45.424 45.424 0 0 0 7.824 5.523l-2.203 15.5a4.902 4.902 0 0 0-.035 1.434 4.97 4.97 0 0 0 1.121 2.61c.309.37.664.69 1.067.96a4.904 4.904 0 0 0 2.8.847 4.93 4.93 0 0 0 2.505-.648l26.718-15.305c1.7-.363 3.367-.832 5.004-1.398a44.913 44.913 0 0 0 9.95 7.176 44.834 44.834 0 0 0 11.519 4.226l26.621 15.153c.773.437 1.61.656 2.5.648a4.907 4.907 0 0 0 2.805-.848 5.19 5.19 0 0 0 1.066-.96 4.97 4.97 0 0 0 1.121-2.61 5.042 5.042 0 0 0-.039-1.434l-2.2-15.5a44.437 44.437 0 0 0 4.837-3.265c1.543-1.192 3-2.477 4.375-3.86a44.181 44.181 0 0 0 3.84-4.394 44.784 44.784 0 0 0 5.82-10.082 44.623 44.623 0 0 0 3.04-11.238c.26-1.93.398-3.871.405-5.82Zm-83.566 24.407c-.54.117-1.059.3-1.55.55l-18.563 10.653 1.05-8.852a4.999 4.999 0 0 0-2.805-5.004 35.24 35.24 0 0 1-3.602-1.996 36.208 36.208 0 0 1-3.339-2.41 32.113 32.113 0 0 1-1.558-1.348 34.17 34.17 0 0 1-2.867-2.957 35.413 35.413 0 0 1-2.5-3.27c-.383-.57-.75-1.152-1.102-1.741a36.619 36.619 0 0 1-1.887-3.66 38.21 38.21 0 0 1-.777-1.907 38.15 38.15 0 0 1-.664-1.949 35.68 35.68 0 0 1-.547-1.988 34.73 34.73 0 0 1-.434-2.012 36.03 36.03 0 0 1-.5-4.086 36.358 36.358 0 0 1-.07-2.059 32.84 32.84 0 0 1 .05-2.058c.036-.688.095-1.371.173-2.055a36.073 36.073 0 0 1 .703-4.055 35.65 35.65 0 0 1 1.176-3.945 33.75 33.75 0 0 1 .761-1.918 35.205 35.205 0 0 1 5.402-8.723c.446-.527.903-1.035 1.376-1.535.476-.496.965-.98 1.465-1.449a34.12 34.12 0 0 1 3.172-2.629c.55-.406 1.117-.797 1.695-1.172a33.45 33.45 0 0 1 3.582-2.03c.617-.306 1.238-.59 1.875-.856.633-.27 1.273-.516 1.922-.746.644-.227 1.3-.438 1.96-.63a34.915 34.915 0 0 1 8.117-1.336 32.849 32.849 0 0 1 2.06-.03c.687.007 1.374.035 2.058.085a36.096 36.096 0 0 1 4.086.54c.672.128 1.344.277 2.012.445.664.172 1.324.36 1.98.566.656.207 1.305.434 1.945.68.641.246 1.274.512 1.903.793a35.137 35.137 0 0 1 3.645 1.918c.59.355 1.167.726 1.734 1.113.566.39 1.12.797 1.664 1.215.543.422 1.07.86 1.59 1.312.515.454 1.02.918 1.507 1.403a34.24 34.24 0 0 1 2.758 3.058 34.193 34.193 0 0 1 2.383 3.36 35.078 35.078 0 0 1 1.969 3.617c.293.621.566 1.25.82 1.887a34.696 34.696 0 0 1 1.781 5.91c.14.672.258 1.347.36 2.027.097.68.18 1.363.238 2.047.059.684.098 1.367.117 2.055.02.687.02 1.375-.004 2.058-.02.688-.062 1.371-.125 2.059-.058.683-.14 1.363-.242 2.043a34.67 34.67 0 0 1-.852 4.027 34.689 34.689 0 0 1-2.145 5.79c-.292.62-.605 1.23-.937 1.831-.332.606-.68 1.196-1.043 1.778-.367.582-.75 1.152-1.148 1.71a33.556 33.556 0 0 1-1.246 1.641c-.43.535-.875 1.059-1.34 1.567-.46.507-.937 1.004-1.43 1.484-.488.48-.992.945-1.511 1.395a35.479 35.479 0 0 1-3.262 2.516 35.318 35.318 0 0 1-7.293 3.8 34.78 34.78 0 0 1-1.95.672c-.655.207-1.316.394-1.984.558-.664.168-1.336.317-2.011.442Zm53.691 7.152c-.46.223-.879.508-1.25.86-.375.35-.687.75-.937 1.199-.25.445-.43.921-.531 1.421a4.963 4.963 0 0 0-.082 1.52l1.25 8.851-18.563-10.402a6.436 6.436 0 0 0-1.55-.55c-5.29-1.032-10.079-3.184-14.364-6.45a44.996 44.996 0 0 0 6.957-5.46 44.692 44.692 0 0 0 8.113-10.462 45.077 45.077 0 0 0 4.719-12.367c.316-1.441.563-2.894.738-4.363.172-1.465.274-2.938.305-4.414a46.478 46.478 0 0 0-.129-4.426 44.743 44.743 0 0 0-.566-4.387 43.99 43.99 0 0 0-.993-4.316 44.994 44.994 0 0 0-3.227-8.23 44.94 44.94 0 0 0-2.206-3.837 33.683 33.683 0 0 1 10.098-.613c.976.086 1.949.211 2.918.38.964.17 1.925.378 2.875.628.949.246 1.886.535 2.812.863.926.328 1.836.696 2.73 1.098.895.406 1.77.848 2.63 1.324a35.523 35.523 0 0 1 4.879 3.281 34.842 34.842 0 0 1 4.258 4.055 34.499 34.499 0 0 1 1.858 2.277c.59.79 1.141 1.598 1.665 2.43a35.012 35.012 0 0 1 2.68 5.23 35.406 35.406 0 0 1 1.773 5.605c.215.958.39 1.923.523 2.896.137.972.23 1.945.281 2.925.055.98.067 1.961.036 2.942-.032.98-.102 1.96-.215 2.933a34.202 34.202 0 0 1-1.16 5.762 34.884 34.884 0 0 1-6.91 12.867 34.817 34.817 0 0 1-4.165 4.149 34.56 34.56 0 0 1-4.8 3.398 35.91 35.91 0 0 1-2.598 1.383Zm0 0"/><path fill="#547326" d="M157.617 104.527c0 .493-.047.98-.14 1.465-.098.48-.239.95-.43 1.406a7.452 7.452 0 0 1-1.625 2.434 7.408 7.408 0 0 1-2.438 1.625 7.303 7.303 0 0 1-1.406.426 7.392 7.392 0 0 1-1.465.144c-.492 0-.98-.047-1.465-.144a7.303 7.303 0 0 1-1.406-.426 7.408 7.408 0 0 1-2.437-1.625 7.452 7.452 0 0 1-1.625-2.434 7.486 7.486 0 0 1-.575-2.87 7.399 7.399 0 0 1 .574-2.871 7.452 7.452 0 0 1 1.625-2.434 7.408 7.408 0 0 1 2.438-1.625 7.314 7.314 0 0 1 1.406-.43 7.696 7.696 0 0 1 1.465-.145c.492 0 .98.051 1.465.145.484.098.953.238 1.406.43a7.408 7.408 0 0 1 2.438 1.625 7.452 7.452 0 0 1 1.625 2.433 7.4 7.4 0 0 1 .43 1.406c.093.485.14.973.14 1.465Zm0 0"/><path fill="#547326" d="M172.629 104.527c0 .493-.047.98-.14 1.465-.098.48-.239.95-.43 1.406a7.452 7.452 0 0 1-1.625 2.434 7.408 7.408 0 0 1-2.438 1.625 7.303 7.303 0 0 1-1.406.426 7.392 7.392 0 0 1-1.465.144c-.492 0-.98-.047-1.465-.144a7.303 7.303 0 0 1-1.406-.426 7.408 7.408 0 0 1-2.438-1.625 7.452 7.452 0 0 1-1.625-2.434 7.486 7.486 0 0 1-.574-2.87 7.4 7.4 0 0 1 .574-2.871 7.452 7.452 0 0 1 1.625-2.434 7.408 7.408 0 0 1 2.438-1.625 7.314 7.314 0 0 1 1.406-.43 7.696 7.696 0 0 1 1.465-.145c.492 0 .98.051 1.465.145.484.098.953.238 1.406.43a7.408 7.408 0 0 1 2.438 1.625 7.452 7.452 0 0 1 1.625 2.433 7.4 7.4 0 0 1 .43 1.406c.093.485.14.973.14 1.465Zm0 0"/><path fill="#547326" d="M187.64 104.527c0 .493-.046.98-.14 1.465-.098.48-.238.95-.43 1.406a7.452 7.452 0 0 1-1.625 2.434 7.408 7.408 0 0 1-2.438 1.625 7.303 7.303 0 0 1-1.405.426 7.392 7.392 0 0 1-1.465.144c-.492 0-.98-.047-1.465-.144a7.303 7.303 0 0 1-1.406-.426 7.408 7.408 0 0 1-2.438-1.625 7.452 7.452 0 0 1-1.625-2.434 7.486 7.486 0 0 1-.574-2.87 7.4 7.4 0 0 1 .574-2.871 7.452 7.452 0 0 1 1.625-2.434 7.408 7.408 0 0 1 2.438-1.625 7.314 7.314 0 0 1 1.406-.43 7.696 7.696 0 0 1 1.465-.145c.492 0 .98.051 1.465.145.484.098.953.238 1.406.43a7.408 7.408 0 0 1 2.437 1.625 7.452 7.452 0 0 1 1.625 2.433c.192.453.332.926.43 1.406.094.485.14.973.14 1.465Zm0 0"/></svg>