<svg xmlns="http://www.w3.org/2000/svg" width="500" height="500" version="1.0" viewBox="0 0 375 375"><path fill="#547326" d="M164.41 74.762h46.125v12.965H164.41ZM171.828 284.691h31.29v12.965h-31.29ZM131.383 102.258h112.176v166.457H131.383Zm0 0"/><path fill="#547326" d="M187.469-.11C83.945-.11.023 83.817.023 187.34c0 103.515 83.922 187.445 187.446 187.445 103.523 0 187.449-83.93 187.449-187.445 0-103.524-83.926-187.45-187.45-187.45Zm75.172 289.196c0 12.96-13.684 23.465-30.547 23.465h-89.242c-16.872 0-30.551-10.504-30.551-23.465v-203.5c0-12.957 13.68-23.465 30.55-23.465h89.243c16.863 0 30.547 10.508 30.547 23.465Zm0 0"/></svg>