<svg xmlns="http://www.w3.org/2000/svg" width="500" height="500" version="1.0" viewBox="0 0 375 375"><path fill="#547326" d="M195.887 134.613c-3.43 4.614-7.52 6.957-12.285 6.957-3.243 0-5.852-1.707-7.82-5.101-1.989-3.395-3-7.598-3-12.68 0-6.246 1.405-11.273 4.179-15.078 2.797-3.828 6.246-5.777 10.375-5.777 3.582 0 6.75 1.425 9.547 4.312 2.793 2.871 4.199 6.695 4.199 11.48-.035 5.981-1.762 11.254-5.195 15.887Zm44.695-69.754c-13.559-12.492-30.422-18.738-50.547-18.738-21.176 0-39.2 7.09-54.09 21.309-14.894 14.234-22.36 31.902-22.36 53.058 0 20.293 7.11 37.719 21.27 52.328 14.22 14.633 33.313 21.926 57.356 21.926 14.5 0 28.715-2.96 42.672-8.945 4.539-1.934 6.77-7.145 4.914-11.723-1.914-4.726-7.317-6.922-12.004-4.914-12.137 5.215-24.027 7.82-35.602 7.82-18.437 0-32.71-5.605-42.855-16.859-10.09-11.219-15.156-24.402-15.156-39.539 0-16.43 5.441-30.14 16.261-41.148 10.786-10.973 24.102-16.489 39.875-16.489 14.52 0 26.805 4.52 36.801 13.543 10.016 9.04 15.004 20.407 15.004 34.117 0 9.375-2.309 17.2-6.883 23.407-4.578 6.246-9.34 9.34-14.273 9.34-2.664 0-4.016-1.426-4.016-4.293 0-2.348.188-5.067.528-8.235l5.101-43.758c.281-2.476-1.633-4.632-4.11-4.632H207.16a4.14 4.14 0 0 0-4.07 3.394l-.617 3.414c-4.953-4.05-10.375-6.078-16.262-6.078-9.344 0-17.352 3.734-23.992 11.16-6.656 7.426-9.957 17.012-9.957 28.715 0 11.441 2.945 20.668 8.851 27.684 5.91 7.035 13 10.523 21.309 10.523 7.426 0 13.766-3.133 19.055-9.34 3.957 5.98 9.808 8.946 17.539 8.946 11.363 0 21.191-4.954 29.484-14.856 8.27-9.883 12.434-21.832 12.434-35.805 0-17.707-6.77-32.84-20.352-45.332"/><path fill="#547326" d="M132.66 254.988 22.715 340.254l-.227-161.414Zm197.07 96.594-285.168.395L187.41 241.164ZM180.47 217.906l-29.051 22.528-71.441-49.403.148-168.074h214.57l-.152 167.66-71.383 49.63-28.808-22.34c-.059-.055-.133-.095-.153-.114-4.09-3.055-9.715-3-13.73.113ZM352.03 340.215 241.914 254.8l109.89-76.414Zm-34.847-165.332v-35.301l25.394 17.648ZM31.059 157.23l26.277-18.171v36.328Zm343.347-.167c0-.696-.129-1.727-.43-2.477a11.344 11.344 0 0 0-4.425-6.168l-52.367-36.406.148-100.383c0-6.227-5.082-11.309-11.309-11.309H68.797C62.57.32 57.488 5.402 57.488 11.63l-.152 99.914L4.707 147.91c-2.96 2.043-4.781 5.438-4.855 9.059-.02.094-.02.187-.02.281l.281 206.09c0 3.039 1.18 5.87 3.32 8.012 2.137 2.136 4.82 2.847 7.86 2.847l352.105-.035c6.227 0 11.309-5.082 11.29-11.328l-.282-205.774"/></svg>