<svg xmlns="http://www.w3.org/2000/svg" width="500" height="500" version="1.0" viewBox="0 0 375 375"><defs><clipPath id="a"><path d="M11.172 4.758h352.5V375h-352.5Zm0 0"/></clipPath></defs><path fill="#fff" d="M187.422 13.578c-23.254 0-94.02 0-133.14 35.762-23.302 23.234-34.278 56.808-34.278 105.379v26.465c0 48.57 10.98 82.144 34.55 105.648 11.735 10.715 27.739 19.281 47.298 25.2l6.265 1.89v47c0 5.512 1.598 5.512 2.125 5.512 1.082 0 2.82-.344 6.113-3.27.793-.785 6.61-7.086 34.895-38.809l2.855-3.199 4.274.274c9.473.59 19.246.898 29.043.898 23.254 0 94.02 0 133.14-35.77 23.29-23.238 34.278-56.812 34.278-105.374v-26.465c0-48.57-10.98-82.145-34.55-105.645-38.849-35.496-109.614-35.496-132.868-35.496Zm0 0"/><path fill="#547326" d="M270.7 224.004c-9.79-8.258-14.31-10.754-27.829-18.879-5.629-3.379-14.21-6.297-18.715-6.297-3.074 0-6.758 2.356-9.015 4.613-5.778 5.786-7.672 13.028-17.805 13.028-9.914 0-27.23-10.098-39.652-23.156-13.043-12.438-23.133-29.77-23.133-39.696 0-10.144 7.105-12.172 12.883-17.969 2.257-2.25 4.742-5.937 4.742-9.015 0-4.508-2.918-12.969-6.293-18.606-8.113-13.539-10.598-18.066-18.856-27.855-2.793-3.317-5.972-4.836-9.304-4.844-5.63-.008-13.024 2.79-18.028 6.52-7.527 5.617-15.394 13.265-17.5 22.793a22.947 22.947 0 0 0-.504 3.91c-.402 9.922 3.493 19.996 7.696 28.527 9.894 20.106 22.988 39.563 37.234 56.942 4.559 5.558 9.516 10.726 14.656 15.718 4.985 5.137 10.149 10.102 15.7 14.672 17.359 14.266 36.796 27.371 56.878 37.278 8.442 4.164 18.383 7.992 28.196 7.71a22.673 22.673 0 0 0 4.203-.511c9.52-2.098 17.156-9.985 22.77-17.52 3.726-5.008 6.523-12.402 6.511-18.047-.008-3.336-1.523-6.52-4.836-9.316Zm4.835-42.82c-4.863 0-8.808-3.95-8.808-8.82v-8.821c0-43.773-35.582-79.395-79.305-79.395-4.863 0-8.813-3.953-8.813-8.82 0-4.871 3.95-8.82 8.813-8.82 53.441 0 96.926 43.531 96.926 97.035v8.82c0 4.871-3.95 8.82-8.813 8.82Zm-54.117-17.641c-3.914 0-7.492-2.629-8.523-6.598-2.415-9.273-9.641-16.515-18.864-18.898a8.83 8.83 0 0 1-6.328-10.754c1.215-4.707 6.008-7.54 10.742-6.332 15.403 3.996 27.473 16.074 31.5 31.527a8.824 8.824 0 0 1-6.3 10.762 8.831 8.831 0 0 1-2.227.293Zm0 0"/><path fill="#547326" d="M249.102 172.363c-4.864 0-8.813-3.953-8.813-8.82 0-28.125-21.973-51.324-50.031-52.805-4.863-.258-8.59-4.41-8.336-9.273.258-4.867 4.476-8.61 9.262-8.344 37.421 1.977 66.73 32.914 66.73 70.422 0 4.867-3.95 8.82-8.812 8.82Zm0 0"/><g clip-path="url(#a)"><path fill="#547326" d="M187.422 4.758c-39.652 0-101.438 3.652-139.082 38.07-26.61 26.527-37.149 63.738-37.149 111.89 0 3.989-.015 8.434.02 13.235-.035 4.79-.02 9.234-.02 13.223 0 48.156 10.54 85.367 37.149 111.89 14.328 13.102 32.2 21.72 50.969 27.399v40.457c0 14.078 9.242 14.336 10.933 14.336h.078c4.356-.02 8.118-2.153 11.887-5.508 1.418-1.258 17.8-19.54 35.617-39.527 10.61.68 20.688.925 29.59.925 39.649 0 101.426-3.66 139.078-38.082 26.602-26.515 37.149-63.734 37.149-111.89 0-3.988.02-8.434-.016-13.23.035-4.801.016-9.239.016-13.235 0-48.156-10.536-85.363-37.149-111.89-37.64-34.41-99.418-38.063-139.07-38.063Zm149.793 173.347v3.07c0 43.278-9.207 72.77-28.953 92.731-34.207 30.778-99.367 30.778-120.848 30.778-6.539 0-17.148-.008-29.668-.88-3.48 3.915-40.816 45.72-40.816 45.72v-51.72c-18.54-4.456-36.86-11.757-50.348-23.89-19.746-19.969-28.957-49.46-28.957-92.738v-3.07c0-3.094-.008-6.438.02-10.348a963.992 963.992 0 0 1-.02-9.969v-3.07c0-43.278 9.21-72.766 28.957-92.73 34.195-30.778 99.367-30.778 120.84-30.778s86.633 0 120.832 30.777c19.754 19.965 28.953 49.453 28.953 92.73v3.071c0 3.098.008 6.441-.016 10.348.024 3.539.024 6.875.024 9.968Zm0 0"/></g></svg>